<svg width="492" height="492" viewBox="0 0 492 492" fill="none" xmlns="http://www.w3.org/2000/svg">
<rect width="492" height="492" fill="url(#paint0_linear_47_4)"/>
<path d="M118.173 118.094H141.347V141.267H118.173V118.094ZM141.347 94.9205H164.52V118.094H141.347V94.9205ZM164.52 94.9205H187.693V118.094H164.52V94.9205ZM164.52 118.094H187.693V141.267H164.52V118.094ZM187.693 118.094H210.866V141.267H187.693V118.094ZM210.866 94.9205H234.04V118.094H210.866V94.9205ZM234.04 118.094H257.213V141.267H234.04V118.094ZM257.213 118.094H280.386V141.267H257.213V118.094ZM303.56 118.094H326.733V141.267H303.56V118.094ZM280.386 141.267H303.56V164.44H280.386V141.267ZM280.386 187.614H303.56V210.787H280.386V187.614ZM280.386 210.787H303.56V233.96H280.386V210.787ZM280.386 233.96H303.56V257.134H280.386V233.96ZM280.386 257.134H303.56V280.307H280.386V257.134ZM280.386 280.307H303.56V303.48H280.386V280.307ZM280.386 303.48H303.56V326.653H280.386V303.48ZM280.386 164.44H303.56V187.614H280.386V164.44ZM234.04 141.267H257.213V164.44H234.04V141.267ZM210.866 141.267H234.04V164.44H210.866V141.267ZM234.04 164.44H257.213V187.614H234.04V164.44ZM210.866 164.44H234.04V187.614H210.866V164.44ZM210.866 187.614H234.04V210.787H210.866V187.614ZM234.04 187.614H257.213V210.787H234.04V187.614ZM234.04 210.787H257.213V233.96H234.04V210.787ZM210.866 210.787H234.04V233.96H210.866V210.787ZM210.866 233.96H234.04V257.134H210.866V233.96ZM234.04 257.134H257.213V280.307H234.04V257.134ZM234.04 233.96H257.213V257.134H234.04V233.96ZM210.866 257.134H234.04V280.307H210.866V257.134ZM210.866 280.307H234.04V303.48H210.866V280.307ZM234.04 280.307H257.213V303.48H234.04V280.307ZM187.693 187.614H210.866V210.787H187.693V187.614ZM164.52 187.614H187.693V210.787H164.52V187.614ZM187.693 233.96H210.866V257.134H187.693V233.96ZM164.52 233.96H187.693V257.134H164.52V233.96ZM280.386 326.653H303.56V349.827H280.386V326.653ZM257.213 326.653H280.386V349.827H257.213V326.653ZM234.04 326.653H257.213V349.827H234.04V326.653ZM210.866 326.653H234.04V349.827H210.866V326.653ZM187.693 326.653H210.866V349.827H187.693V326.653ZM164.52 349.827H187.693V373H164.52V349.827ZM257.213 349.827H280.386V373H257.213V349.827ZM234.04 349.827H257.213V373H234.04V349.827ZM210.866 349.827H234.04V373H210.866V349.827ZM303.56 326.653H326.733V349.827H303.56V326.653ZM326.733 326.653H349.906V349.827H326.733V326.653ZM349.906 326.653H373.08V349.827H349.906V326.653ZM303.56 349.827H326.733V373H303.56V349.827ZM326.733 349.827H349.906V373H326.733V349.827ZM373.08 303.48H396.253V326.653H373.08V303.48Z" fill="white"/>
<defs>
<linearGradient id="paint0_linear_47_4" x1="246" y1="0" x2="492" y2="522.5" gradientUnits="userSpaceOnUse">
<stop stop-color="#A855F7"/>
<stop offset="1" stop-color="#7C3AED"/>
</linearGradient>
</defs>
</svg>
